<?xml version="1.0" encoding="UTF-8"?>
<svg width="1024px" height="1024px" viewBox="0 0 1024 1024" version="1.1" xmlns="http://www.w3.org/2000/svg" xmlns:xlink="http://www.w3.org/1999/xlink">
    <title>logo</title>
    <g id="Page-1" stroke="none" stroke-width="1" fill="none" fill-rule="evenodd">
        <g id="logo">
            <rect id="Rectangle" stroke="#979797" fill="#D8D8D8" x="0.5" y="0.5" width="1023" height="1023"></rect>
            <path d="M767.636416,306.065159 C766.696867,300.537569 764.198005,295.894452 760.161058,292.120237 C755.313324,287.008703 749.255781,284.444444 741.98135,284.444444 C737.672724,284.444444 733.768786,285.381276 730.263872,287.270505 L213.166636,545.854435 C207.774134,548.551718 203.87444,552.58349 201.447743,557.972394 C199.023876,563.362715 198.487597,569.021914 199.830417,574.940086 C201.176066,580.866748 204.209791,585.641476 208.918856,589.293987 C213.630751,592.925272 218.951089,594.74799 224.875625,594.74799 L457.562588,594.74799 L457.562588,827.472818 C457.562588,833.405141 459.383673,838.721873 463.017349,843.438579 C466.656688,848.151042 471.437916,851.187961 477.362454,852.529527 C480.055167,853.057378 482.078593,853.333333 483.422827,853.333333 C494.193683,853.333333 501.874211,848.620873 506.450269,839.187458 L765.013036,322.022432 C767.704335,316.906652 768.57172,311.58709 767.636416,306.065159 Z" id="Path" fill="#4768FD" fill-rule="nonzero"></path>
        </g>
    </g>
</svg>